<?xml version="1.0" encoding="UTF-8" standalone="no"?>
<!-- Created with Inkscape (http://www.inkscape.org/) -->

<svg
   width="52.952835mm"
   height="32.974072mm"
   viewBox="0 0 52.952835 32.974072"
   version="1.1"
   id="svg5"
   xml:space="preserve"
   inkscape:version="1.2.2 (b0a8486541, 2022-12-01)"
   sodipodi:docname="mkx.svg"
   xmlns:inkscape="http://www.inkscape.org/namespaces/inkscape"
   xmlns:sodipodi="http://sodipodi.sourceforge.net/DTD/sodipodi-0.dtd"
   xmlns:xlink="http://www.w3.org/1999/xlink"
   xmlns="http://www.w3.org/2000/svg"
   xmlns:svg="http://www.w3.org/2000/svg"><sodipodi:namedview
     id="namedview7"
     pagecolor="#ffffff"
     bordercolor="#000000"
     borderopacity="0.25"
     inkscape:showpageshadow="2"
     inkscape:pageopacity="0.0"
     inkscape:pagecheckerboard="0"
     inkscape:deskcolor="#d1d1d1"
     inkscape:document-units="mm"
     showgrid="false"
     inkscape:zoom="1"
     inkscape:cx="517.5"
     inkscape:cy="65"
     inkscape:window-width="1920"
     inkscape:window-height="1012"
     inkscape:window-x="0"
     inkscape:window-y="0"
     inkscape:window-maximized="1"
     inkscape:current-layer="layer1"
     showguides="true"><inkscape:grid
       type="xygrid"
       id="grid6995" /></sodipodi:namedview><defs
     id="defs2"><linearGradient
       id="linearGradient10720"><stop
         style="stop-color:#000055;stop-opacity:1"
         offset="0.45441341"
         id="stop10724" /><stop
         style="stop-color:#000080;stop-opacity:1"
         offset="0.54112828"
         id="stop10726" /></linearGradient><inkscape:path-effect
       effect="fillet_chamfer"
       id="path-effect10626"
       is_visible="true"
       lpeversion="1"
       nodesatellites_param="F,0,0,1,0,1.5875,0,1 @ F,0,0,1,0,1.5875,0,1 @ F,0,0,1,0,1.5875,0,1 @ F,0,0,1,0,1.5875,0,1 @ F,0,0,1,0,1.5875,0,1 @ F,0,0,1,0,1.5875,0,1 @ F,0,0,1,0,1.5875,0,1 @ F,0,0,1,0,1.5875,0,1"
       unit="px"
       method="auto"
       mode="F"
       radius="6"
       chamfer_steps="1"
       flexible="false"
       use_knot_distance="true"
       apply_no_radius="true"
       apply_with_radius="true"
       only_selected="false"
       hide_knots="false" /><inkscape:path-effect
       effect="fillet_chamfer"
       id="path-effect10612"
       is_visible="true"
       lpeversion="1"
       nodesatellites_param="F,0,0,1,0,1.5875,0,1 @ F,0,0,1,0,1.5875,0,1 @ F,0,0,1,0,1.5875,0,1 @ F,0,0,1,0,1.5875,0,1 @ F,0,0,1,0,1.5875,0,1 @ F,0,0,1,0,1.5875,0,1 @ F,0,0,1,0,1.5875,0,1 @ F,0,0,1,0,1.5875,0,1"
       unit="px"
       method="auto"
       mode="F"
       radius="6"
       chamfer_steps="1"
       flexible="false"
       use_knot_distance="true"
       apply_no_radius="true"
       apply_with_radius="true"
       only_selected="false"
       hide_knots="false" /><inkscape:path-effect
       effect="fillet_chamfer"
       id="path-effect10598"
       is_visible="true"
       lpeversion="1"
       nodesatellites_param="F,0,0,1,0,1.5875,0,1 @ F,0,0,1,0,1.5875,0,1 @ F,0,0,1,0,1.5875,0,1 @ F,0,0,1,0,1.5875,0,1 @ F,0,0,1,0,1.5875,0,1 @ F,0,0,1,0,1.5875,0,1 @ F,0,0,1,0,1.5875,0,1 @ F,0,0,1,0,1.5875,0,1"
       unit="px"
       method="auto"
       mode="F"
       radius="6"
       chamfer_steps="1"
       flexible="false"
       use_knot_distance="true"
       apply_no_radius="true"
       apply_with_radius="true"
       only_selected="false"
       hide_knots="false" /><inkscape:path-effect
       effect="fillet_chamfer"
       id="path-effect10566"
       is_visible="true"
       lpeversion="1"
       nodesatellites_param="F,0,0,1,0,1.0583333,0,1 @ F,0,0,1,0,1.0583333,0,1 @ F,0,0,1,0,1.0583333,0,1 @ F,0,0,1,0,1.0583333,0,1 @ F,0,0,1,0,1.0583333,0,1 @ F,0,0,1,0,1.0583333,0,1 @ F,0,0,1,0,1.0583333,0,1 @ F,0,0,1,0,1.0583333,0,1 @ F,0,0,1,0,1.0583333,0,1 @ F,0,0,1,0,1.0583333,0,1"
       unit="px"
       method="auto"
       mode="F"
       radius="4"
       chamfer_steps="1"
       flexible="false"
       use_knot_distance="true"
       apply_no_radius="true"
       apply_with_radius="true"
       only_selected="false"
       hide_knots="false" /><linearGradient
       inkscape:collect="always"
       id="linearGradient8737"><stop
         style="stop-color:#c5dbff;stop-opacity:1;"
         offset="0.15551822"
         id="stop8733" /><stop
         style="stop-color:#67a5ff;stop-opacity:1;"
         offset="0.7261315"
         id="stop8735" /></linearGradient><linearGradient
       inkscape:collect="always"
       id="linearGradient8655"><stop
         style="stop-color:#67a5ff;stop-opacity:1;"
         offset="0.43430567"
         id="stop8651" /><stop
         style="stop-color:#d5e5ff;stop-opacity:1"
         offset="0.55135322"
         id="stop8653" /></linearGradient><inkscape:path-effect
       effect="fillet_chamfer"
       id="path-effect8636"
       is_visible="true"
       lpeversion="1"
       nodesatellites_param="F,0,0,1,0,1.5875,0,1 @ F,0,0,1,0,1.5875,0,1 @ F,0,0,1,0,1.5875,0,1 @ F,0,0,1,0,1.5875,0,1 @ F,0,0,1,0,1.5875,0,1 @ F,0,0,1,0,1.5875,0,1 @ F,0,0,1,0,1.5875,0,1 @ F,0,0,1,0,1.5875,0,1"
       unit="px"
       method="auto"
       mode="F"
       radius="6"
       chamfer_steps="1"
       flexible="false"
       use_knot_distance="true"
       apply_no_radius="true"
       apply_with_radius="true"
       only_selected="false"
       hide_knots="false" /><linearGradient
       inkscape:collect="always"
       xlink:href="#linearGradient8655"
       id="linearGradient8657"
       x1="73.070526"
       y1="43.588299"
       x2="98.057007"
       y2="43.588299"
       gradientUnits="userSpaceOnUse" /><radialGradient
       inkscape:collect="always"
       xlink:href="#linearGradient8737"
       id="radialGradient8739"
       cx="85.563766"
       cy="36.914803"
       fx="85.563766"
       fy="36.914803"
       r="9.5476933"
       gradientTransform="matrix(1,0,0,0.44520396,0,20.480186)"
       gradientUnits="userSpaceOnUse" /><linearGradient
       inkscape:collect="always"
       xlink:href="#linearGradient8655"
       id="linearGradient10600"
       gradientUnits="userSpaceOnUse"
       x1="73.070526"
       y1="43.588299"
       x2="98.057007"
       y2="43.588299" /><radialGradient
       inkscape:collect="always"
       xlink:href="#linearGradient8737"
       id="radialGradient10602"
       gradientUnits="userSpaceOnUse"
       gradientTransform="matrix(1,0,0,0.44520396,0,20.480186)"
       cx="85.563766"
       cy="36.914803"
       fx="85.563766"
       fy="36.914803"
       r="9.5476933" /><linearGradient
       inkscape:collect="always"
       xlink:href="#linearGradient8655"
       id="linearGradient10614"
       gradientUnits="userSpaceOnUse"
       x1="73.070526"
       y1="43.588299"
       x2="98.057007"
       y2="43.588299" /><radialGradient
       inkscape:collect="always"
       xlink:href="#linearGradient8737"
       id="radialGradient10616"
       gradientUnits="userSpaceOnUse"
       gradientTransform="matrix(1,0,0,0.44520396,0,20.480186)"
       cx="85.563766"
       cy="36.914803"
       fx="85.563766"
       fy="36.914803"
       r="9.5476933" /><linearGradient
       inkscape:collect="always"
       xlink:href="#linearGradient8655"
       id="linearGradient10628"
       gradientUnits="userSpaceOnUse"
       x1="73.070526"
       y1="43.588299"
       x2="98.057007"
       y2="43.588299" /><radialGradient
       inkscape:collect="always"
       xlink:href="#linearGradient8737"
       id="radialGradient10630"
       gradientUnits="userSpaceOnUse"
       gradientTransform="matrix(1,0,0,0.44520396,0,20.480186)"
       cx="85.563766"
       cy="36.914803"
       fx="85.563766"
       fy="36.914803"
       r="9.5476933" /><linearGradient
       inkscape:collect="always"
       xlink:href="#linearGradient10720"
       id="linearGradient10722"
       x1="59.093033"
       y1="46.075577"
       x2="112.04587"
       y2="46.075577"
       gradientUnits="userSpaceOnUse" /></defs><g
     inkscape:label="Layer 1"
     inkscape:groupmode="layer"
     id="layer1"
     transform="translate(-59.093034,-21.551629)"><g
       id="g10594"
       transform="translate(0,-11.112501)"><path
         id="path10590"
         style="fill:url(#linearGradient10600);fill-opacity:1;stroke:#000000;stroke-width:0.529167;stroke-dasharray:none;stroke-opacity:1"
         d="m 76.421692,36.604484 -3.018421,7.83208 12.160499,6.183085 12.160498,-6.183085 -3.018421,-7.83208 -9.142077,3.622001 z" /><path
         id="path10592"
         style="fill:url(#radialGradient10602);fill-opacity:1;stroke:#ff0000;stroke-width:0.661458;stroke-dasharray:none;stroke-opacity:1"
         inkscape:transform-center-y="-0.70565349"
         d="m 84.095905,33.285282 -2.204525,0.908005 a 89635.855,89635.855 157.61306 0 0 -2.935709,1.20923 l -2.20405,0.907901 a 0.65385014,0.65385014 89.997541 0 0 5.2e-5,1.209156 l 2.203946,0.907637 a 62773.522,62773.522 22.384484 0 1 2.935761,1.209104 l 2.204525,0.908006 a 3.8542489,3.8542489 180 0 0 2.93573,0 l 2.204524,-0.908006 a 62688.612,62688.612 157.61551 0 1 2.935761,-1.209104 l 2.203946,-0.907637 a 0.65385014,0.65385014 90.002459 0 0 5.2e-5,-1.209156 l -2.20405,-0.907901 a 89809.553,89809.553 22.38694 0 0 -2.935709,-1.20923 l -2.204524,-0.908005 a 3.8542507,3.8542507 1.9625773e-6 0 0 -2.93573,0 z"
         inkscape:path-effect="#path-effect10598"
         inkscape:original-d="m 85.56377,32.680693 -5.140255,2.117183 -5.139738,2.117183 5.139738,2.116667 5.140255,2.117184 5.140254,-2.117184 5.139738,-2.116667 -5.139738,-2.117183 z" /></g><path
       style="fill:#000080;stroke:#00222b;stroke-width:0;stroke-dasharray:none;stroke-opacity:1"
       d="M 98.1722,36.914804 85.563971,28.592452"
       id="path7831" /><g
       id="g10608"
       transform="translate(13.229169,-5.2916669)"><path
         id="path10604"
         style="fill:url(#linearGradient10614);fill-opacity:1;stroke:#000000;stroke-width:0.529167;stroke-dasharray:none;stroke-opacity:1"
         d="m 76.421692,36.604484 -3.018421,7.83208 12.160499,6.183085 12.160498,-6.183085 -3.018421,-7.83208 -9.142077,3.622001 z" /><path
         id="path10606"
         style="fill:url(#radialGradient10616);fill-opacity:1;stroke:#ff0000;stroke-width:0.661458;stroke-dasharray:none;stroke-opacity:1"
         inkscape:transform-center-y="-0.70565349"
         d="m 84.095905,33.285282 -2.204525,0.908005 a 89635.855,89635.855 157.61306 0 0 -2.935709,1.20923 l -2.20405,0.907901 a 0.65385014,0.65385014 89.997541 0 0 5.2e-5,1.209156 l 2.203946,0.907637 a 62773.522,62773.522 22.384484 0 1 2.935761,1.209104 l 2.204525,0.908006 a 3.8542489,3.8542489 180 0 0 2.93573,0 l 2.204524,-0.908006 a 62688.612,62688.612 157.61551 0 1 2.935761,-1.209104 l 2.203946,-0.907637 a 0.65385014,0.65385014 90.002459 0 0 5.2e-5,-1.209156 l -2.20405,-0.907901 a 89809.553,89809.553 22.38694 0 0 -2.935709,-1.20923 l -2.204524,-0.908005 a 3.8542507,3.8542507 1.9625773e-6 0 0 -2.93573,0 z"
         inkscape:path-effect="#path-effect10612"
         inkscape:original-d="m 85.56377,32.680693 -5.140255,2.117183 -5.139738,2.117183 5.139738,2.116667 5.140255,2.117184 5.140254,-2.117184 5.139738,-2.116667 -5.139738,-2.117183 z" /></g><g
       id="g10622"
       transform="translate(-13.229169,-5.2916669)"><path
         id="path10618"
         style="fill:url(#linearGradient10628);fill-opacity:1;stroke:#000000;stroke-width:0.529167;stroke-dasharray:none;stroke-opacity:1"
         d="m 76.421692,36.604484 -3.018421,7.83208 12.160499,6.183085 12.160498,-6.183085 -3.018421,-7.83208 -9.142077,3.622001 z" /><path
         id="path10620"
         style="fill:url(#radialGradient10630);fill-opacity:1;stroke:#ff0000;stroke-width:0.661458;stroke-dasharray:none;stroke-opacity:1"
         inkscape:transform-center-y="-0.70565349"
         d="m 84.095905,33.285282 -2.204525,0.908005 a 89635.855,89635.855 157.61306 0 0 -2.935709,1.20923 l -2.20405,0.907901 a 0.65385014,0.65385014 89.997541 0 0 5.2e-5,1.209156 l 2.203946,0.907637 a 62773.522,62773.522 22.384484 0 1 2.935761,1.209104 l 2.204525,0.908006 a 3.8542489,3.8542489 180 0 0 2.93573,0 l 2.204524,-0.908006 a 62688.612,62688.612 157.61551 0 1 2.935761,-1.209104 l 2.203946,-0.907637 a 0.65385014,0.65385014 90.002459 0 0 5.2e-5,-1.209156 l -2.20405,-0.907901 a 89809.553,89809.553 22.38694 0 0 -2.935709,-1.20923 l -2.204524,-0.908005 a 3.8542507,3.8542507 1.9625773e-6 0 0 -2.93573,0 z"
         inkscape:path-effect="#path-effect10626"
         inkscape:original-d="m 85.56377,32.680693 -5.140255,2.117183 -5.139738,2.117183 5.139738,2.116667 5.140255,2.117184 5.140254,-2.117184 5.139738,-2.116667 -5.139738,-2.117183 z" /></g><g
       id="g10588"><path
         id="path8631"
         style="fill:url(#linearGradient8657);fill-opacity:1;stroke:#000000;stroke-width:0.529167;stroke-dasharray:none;stroke-opacity:1"
         d="m 76.421692,36.604484 -3.018421,7.83208 12.160499,6.183085 12.160498,-6.183085 -3.018421,-7.83208 -9.142077,3.622001 z" /><path
         id="path8571"
         style="fill:url(#radialGradient8739);fill-opacity:1;stroke:#ff0000;stroke-width:0.661458;stroke-dasharray:none;stroke-opacity:1"
         inkscape:transform-center-y="-0.70565349"
         d="m 84.095905,33.285282 -2.204525,0.908005 a 89635.855,89635.855 157.61306 0 0 -2.935709,1.20923 l -2.20405,0.907901 a 0.65385014,0.65385014 89.997541 0 0 5.2e-5,1.209156 l 2.203946,0.907637 a 62773.522,62773.522 22.384484 0 1 2.935761,1.209104 l 2.204525,0.908006 a 3.8542489,3.8542489 180 0 0 2.93573,0 l 2.204524,-0.908006 a 62688.612,62688.612 157.61551 0 1 2.935761,-1.209104 l 2.203946,-0.907637 a 0.65385014,0.65385014 90.002459 0 0 5.2e-5,-1.209156 l -2.20405,-0.907901 a 89809.553,89809.553 22.38694 0 0 -2.935709,-1.20923 l -2.204524,-0.908005 a 3.8542507,3.8542507 1.9625773e-6 0 0 -2.93573,0 z"
         inkscape:path-effect="#path-effect8636"
         inkscape:original-d="m 85.56377,32.680693 -5.140255,2.117183 -5.139738,2.117183 5.139738,2.116667 5.140255,2.117184 5.140254,-2.117184 5.139738,-2.116667 -5.139738,-2.117183 z" /></g><path
       id="path10218"
       style="fill:url(#linearGradient10722);fill-opacity:1;stroke:#000000;stroke-width:0.529167;stroke-dasharray:none;stroke-opacity:1"
       inkscape:transform-center-y="-1.7992565"
       d="m 59.357617,38.597644 v 4.018877 a 1.5804216,1.5804216 56.191657 0 0 0.978595,1.461348 l 11.147953,4.591056 a 35569.685,35569.685 22.38502 0 1 1.957166,0.806088 l 11.149552,4.592491 a 2.569348,2.569348 179.9996 0 0 1.957137,-1.3e-5 l 11.149045,-4.592465 a 24256.347,24256.347 157.61498 0 1 1.957167,-0.806087 l 11.148458,-4.591084 a 1.5803979,1.5803979 123.80874 0 0 0.9786,-1.461334 l 0,-4.018877 a 0.708752,0.708752 33.809704 0 0 -0.97861,-0.655365 l -11.148435,4.590634 a 17513.238,17513.238 157.61595 0 0 -1.95718,0.806054 L 86.54802,47.931431 a 2.5693485,2.5693485 179.9996 0 1 -1.957137,1.3e-5 l -11.149552,-4.59249 a 22733.673,22733.673 22.384053 0 0 -1.95718,-0.806055 L 60.336226,37.942293 a 0.70874138,0.70874138 146.19069 0 0 -0.978609,0.655351 z"
       inkscape:path-effect="#path-effect10566"
       inkscape:original-d="m 59.357617,37.539311 v 6.135543 L 72.46276,49.07194 85.569454,54.470577 98.675631,49.07194 111.78129,43.674854 V 37.539311 L 98.675631,42.935881 85.569454,48.334517 72.46276,42.935881 Z" /></g></svg>
